<svg width="9" height="9" viewBox="0 0 9 9" fill="none" xmlns="http://www.w3.org/2000/svg">
<rect x="4" y="3" width="1" height="1" fill="#EDD446"/>
<rect x="4" y="2" width="1" height="1" fill="white"/>
<rect x="4" y="4" width="1" height="1" fill="white"/>
<rect x="4" y="5" width="1" height="1" fill="#EDD446"/>
<rect x="4" y="6" width="1" height="1" fill="white"/>
<rect x="4" y="7" width="1" height="1" fill="white"/>
<rect x="4" y="8" width="1" height="1" fill="white"/>
<rect x="5" y="4" width="1" height="1" fill="#EDD446"/>
<rect x="6" y="4" width="1" height="1" fill="white"/>
<rect x="4" y="1" width="1" height="1" fill="white"/>
<rect x="4" width="1" height="1" fill="white"/>
<rect x="1" y="4" width="1" height="1" fill="white"/>
<rect x="7" y="4" width="1" height="1" fill="white"/>
<rect x="8" y="4" width="1" height="1" fill="white"/>
<rect x="5" y="3" width="1" height="1" fill="white"/>
<rect x="3" y="4" width="1" height="1" fill="#EDD446"/>
<rect x="2" y="4" width="1" height="1" fill="white"/>
<rect y="4" width="1" height="1" fill="white"/>
<rect x="3" y="3" width="1" height="1" fill="white"/>
<rect x="3" y="5" width="1" height="1" fill="white"/>
<rect x="5" y="5" width="1" height="1" fill="white"/>
</svg>
